<svg version="1.1" xmlns="http://www.w3.org/2000/svg" viewBox="0 0 241.31325550619886 308.3329915336874" width="482.6265110123977" height="616.6659830673748">
  <!-- svg-source:excalidraw -->
  
  <defs>
    <style class="style-fonts">
      
    </style>
    
  </defs>
  <g stroke-linecap="round" transform="translate(10 10) rotate(0 110.65662775309943 144.1664957668437)"><path d="M32 0 C67.29 0, 102.57 0, 189.31 0 M32 0 C81.93 0, 131.85 0, 189.31 0 M189.31 0 C210.65 0, 221.31 10.67, 221.31 32 M189.31 0 C210.65 0, 221.31 10.67, 221.31 32 M221.31 32 C221.31 117.54, 221.31 203.07, 221.31 256.33 M221.31 32 C221.31 106.64, 221.31 181.28, 221.31 256.33 M221.31 256.33 C221.31 277.67, 210.65 288.33, 189.31 288.33 M221.31 256.33 C221.31 277.67, 210.65 288.33, 189.31 288.33 M189.31 288.33 C151.79 288.33, 114.27 288.33, 32 288.33 M189.31 288.33 C140.83 288.33, 92.34 288.33, 32 288.33 M32 288.33 C10.67 288.33, 0 277.67, 0 256.33 M32 288.33 C10.67 288.33, 0 277.67, 0 256.33 M0 256.33 C0 183.9, 0 111.47, 0 32 M0 256.33 C0 192.02, 0 127.71, 0 32 M0 32 C0 10.67, 10.67 0, 32 0 M0 32 C0 10.67, 10.67 0, 32 0" stroke="#1e1e1e" stroke-width="4" fill="none"></path></g><g stroke-linecap="round" transform="translate(95.14559697565346 59.05107067126869) rotate(0 24.81574258230262 24.815742582302846)"><path d="M49.63 24.82 C49.63 26.25, 49.5 27.71, 49.25 29.12 C49.01 30.54, 48.63 31.95, 48.13 33.3 C47.64 34.65, 47.03 35.98, 46.31 37.22 C45.59 38.47, 44.75 39.67, 43.83 40.77 C42.9 41.87, 41.87 42.9, 40.77 43.83 C39.67 44.75, 38.47 45.59, 37.22 46.31 C35.98 47.03, 34.65 47.64, 33.3 48.13 C31.95 48.63, 30.54 49.01, 29.12 49.25 C27.71 49.5, 26.25 49.63, 24.82 49.63 C23.38 49.63, 21.92 49.5, 20.51 49.25 C19.09 49.01, 17.68 48.63, 16.33 48.13 C14.98 47.64, 13.65 47.03, 12.41 46.31 C11.16 45.59, 9.96 44.75, 8.86 43.83 C7.76 42.9, 6.73 41.87, 5.81 40.77 C4.88 39.67, 4.04 38.47, 3.32 37.22 C2.61 35.98, 1.99 34.65, 1.5 33.3 C1.01 31.95, 0.63 30.54, 0.38 29.12 C0.13 27.71, 0 26.25, 0 24.82 C0 23.38, 0.13 21.92, 0.38 20.51 C0.63 19.09, 1.01 17.68, 1.5 16.33 C1.99 14.98, 2.61 13.65, 3.32 12.41 C4.04 11.16, 4.88 9.96, 5.81 8.86 C6.73 7.76, 7.76 6.73, 8.86 5.81 C9.96 4.88, 11.16 4.04, 12.41 3.32 C13.65 2.61, 14.98 1.99, 16.33 1.5 C17.68 1.01, 19.09 0.63, 20.51 0.38 C21.92 0.13, 23.38 0, 24.82 0 C26.25 0, 27.71 0.13, 29.12 0.38 C30.54 0.63, 31.95 1.01, 33.3 1.5 C34.65 1.99, 35.98 2.61, 37.22 3.32 C38.47 4.04, 39.67 4.88, 40.77 5.81 C41.87 6.73, 42.9 7.76, 43.83 8.86 C44.75 9.96, 45.59 11.16, 46.31 12.41 C47.03 13.65, 47.64 14.98, 48.13 16.33 C48.63 17.68, 49.01 19.09, 49.25 20.51 C49.5 21.92, 49.57 24.1, 49.63 24.82 C49.69 25.53, 49.69 24.1, 49.63 24.82" stroke="#1e1e1e" stroke-width="4" fill="none"></path></g></svg>