<svg version="1.1" xmlns="http://www.w3.org/2000/svg" viewBox="0 0 293.36918037734677 214.1063261310344" width="586.7383607546935" height="428.2126522620688">
  <!-- svg-source:excalidraw -->
  
  <defs>
    <style class="style-fonts">
      
    </style>
    
  </defs>
  <g stroke-linecap="round" transform="translate(10 10) rotate(0 136.68459018867338 97.0531630655172)"><path d="M32 0 C87.07 0, 142.15 0, 241.37 0 M32 0 C74.23 0, 116.46 0, 241.37 0 M241.37 0 C262.7 0, 273.37 10.67, 273.37 32 M241.37 0 C262.7 0, 273.37 10.67, 273.37 32 M273.37 32 C273.37 69.37, 273.37 106.75, 273.37 162.11 M273.37 32 C273.37 76.47, 273.37 120.93, 273.37 162.11 M273.37 162.11 C273.37 183.44, 262.7 194.11, 241.37 194.11 M273.37 162.11 C273.37 183.44, 262.7 194.11, 241.37 194.11 M241.37 194.11 C173.44 194.11, 105.52 194.11, 32 194.11 M241.37 194.11 C159.42 194.11, 77.47 194.11, 32 194.11 M32 194.11 C10.67 194.11, 0 183.44, 0 162.11 M32 194.11 C10.67 194.11, 0 183.44, 0 162.11 M0 162.11 C0 115.87, 0 69.63, 0 32 M0 162.11 C0 133.35, 0 104.6, 0 32 M0 32 C0 10.67, 10.67 0, 32 0 M0 32 C0 10.67, 10.67 0, 32 0" stroke="#ffffff" stroke-width="4" fill="none"></path></g><g stroke-linecap="round" transform="translate(35.5080077852931 39.782518689346716) rotate(0 65.753102315467 65.75310231546689)"><path d="M131.51 65.75 C131.51 68.39, 131.35 71.06, 131.03 73.68 C130.71 76.3, 130.23 78.92, 129.6 81.49 C128.96 84.05, 128.17 86.6, 127.23 89.07 C126.3 91.54, 125.2 93.97, 123.97 96.31 C122.75 98.65, 121.37 100.93, 119.87 103.11 C118.37 105.28, 116.72 107.38, 114.97 109.36 C113.22 111.33, 111.33 113.22, 109.36 114.97 C107.38 116.72, 105.28 118.37, 103.11 119.87 C100.93 121.37, 98.65 122.75, 96.31 123.97 C93.97 125.2, 91.54 126.3, 89.07 127.23 C86.6 128.17, 84.05 128.96, 81.49 129.6 C78.92 130.23, 76.3 130.71, 73.68 131.03 C71.06 131.35, 68.39 131.51, 65.75 131.51 C63.11 131.51, 60.45 131.35, 57.83 131.03 C55.2 130.71, 52.58 130.23, 50.02 129.6 C47.45 128.96, 44.91 128.17, 42.44 127.23 C39.97 126.3, 37.54 125.2, 35.2 123.97 C32.86 122.75, 30.58 121.37, 28.4 119.87 C26.23 118.37, 24.13 116.72, 22.15 114.97 C20.17 113.22, 18.29 111.33, 16.54 109.36 C14.78 107.38, 13.14 105.28, 11.64 103.11 C10.14 100.93, 8.76 98.65, 7.53 96.31 C6.3 93.97, 5.21 91.54, 4.27 89.07 C3.34 86.6, 2.54 84.05, 1.91 81.49 C1.28 78.92, 0.8 76.3, 0.48 73.68 C0.16 71.06, 0 68.39, 0 65.75 C0 63.11, 0.16 60.45, 0.48 57.83 C0.8 55.2, 1.28 52.58, 1.91 50.02 C2.54 47.45, 3.34 44.91, 4.27 42.44 C5.21 39.97, 6.3 37.54, 7.53 35.2 C8.76 32.86, 10.14 30.58, 11.64 28.4 C13.14 26.23, 14.78 24.13, 16.54 22.15 C18.29 20.17, 20.17 18.29, 22.15 16.54 C24.13 14.78, 26.23 13.14, 28.4 11.64 C30.58 10.14, 32.86 8.76, 35.2 7.53 C37.54 6.3, 39.97 5.21, 42.44 4.27 C44.91 3.34, 47.45 2.54, 50.02 1.91 C52.58 1.28, 55.2 0.8, 57.83 0.48 C60.45 0.16, 63.11 0, 65.75 0 C68.39 0, 71.06 0.16, 73.68 0.48 C76.3 0.8, 78.92 1.28, 81.49 1.91 C84.05 2.54, 86.6 3.34, 89.07 4.27 C91.54 5.21, 93.97 6.3, 96.31 7.53 C98.65 8.76, 100.93 10.14, 103.11 11.64 C105.28 13.14, 107.38 14.78, 109.36 16.54 C111.33 18.29, 113.22 20.17, 114.97 22.15 C116.72 24.13, 118.37 26.23, 119.87 28.4 C121.37 30.58, 122.75 32.86, 123.97 35.2 C125.2 37.54, 126.3 39.97, 127.23 42.44 C128.17 44.91, 128.96 47.45, 129.6 50.02 C130.23 52.58, 130.71 55.2, 131.03 57.83 C131.35 60.45, 131.51 63.11, 131.51 65.75" stroke="#ffffff" stroke-width="4" fill="none"></path></g></svg>